<?xml version="1.0" encoding="utf-8"?>
<svg version="1.1" xmlns="http://www.w3.org/2000/svg" width="3264" height="3264">
  <path d="M 2002.52 448.012 C 2023.767 449.291 2313.7 419.961 2503.322 529.463 C 2692.945 638.964 2782.256 887.297 2775.15 1046.95 C 2775.15 1048.335 2775.15 1049.72 2775.151 1051.106 C 2775.152 1052.493 2775.155 1053.88 2775.16 1055.27 C 2775.16 1058.61 2775.163 1061.95 2775.165 1065.29 C 2775.168 1068.63 2775.17 1071.97 2775.17 1075.31 C 2775.17 1078.035 2775.17 1080.76 2775.17 1083.486 C 2775.17 1086.212 2775.17 1088.94 2775.17 1091.67 C 2775.175 1099.46 2775.18 1107.252 2775.184 1115.045 C 2775.188 1122.837 2775.19 1130.63 2775.19 1138.42 C 2775.19 1138.84 2775.19 1139.258 2775.19 1139.677 C 2775.19 1140.097 2775.19 1140.52 2775.19 1140.95 C 2775.19 1141.37 2775.19 1141.788 2775.189 1142.207 C 2775.188 1142.627 2775.185 1143.05 2775.18 1143.48 C 2775.18 1150.225 2775.185 1156.97 2775.191 1163.715 C 2775.198 1170.46 2775.205 1177.205 2775.21 1183.95 C 2775.215 1190.94 2775.22 1197.927 2775.224 1204.914 C 2775.228 1211.9 2775.23 1218.885 2775.23 1225.87 C 2775.23 1229.77 2775.23 1233.667 2775.231 1237.565 C 2775.233 1241.462 2775.235 1245.36 2775.24 1249.26 C 2775.26 1263.355 2775.275 1277.447 2775.134 1291.539 C 2774.993 1305.63 2774.695 1319.72 2774.09 1333.81 C 2774.06 1334.515 2774.045 1334.867 2774.03 1335.224 C 2774.015 1335.58 2774 1335.94 2773.97 1336.66 C 2772.035 1380.88 2767.453 1425.292 2757.774 1473.361 C 2748.095 1521.43 2733.32 1573.155 2711 1632 C 2710.76 1632.54 2710.52 1633.08 2710.279 1633.624 C 2710.038 1634.167 2709.795 1634.715 2709.55 1635.27 C 2706.145 1642.93 2702.58 1650.467 2698.83 1657.912 C 2695.08 1665.357 2691.145 1672.71 2687 1680 C 2686.695 1680.545 2686.543 1680.817 2686.388 1681.094 C 2686.233 1681.37 2686.075 1681.65 2685.76 1682.21 C 2678.625 1694.915 2670.81 1707.312 2662.425 1719.312 C 2654.04 1731.312 2645.085 1742.915 2635.67 1754.03 C 2634.905 1754.93 2634.148 1755.835 2633.394 1756.744 C 2632.64 1757.652 2631.89 1758.565 2631.14 1759.48 C 2627.505 1763.86 2623.695 1768.067 2619.791 1772.189 C 2615.888 1776.31 2611.89 1780.345 2607.88 1784.38 C 2607.6 1784.655 2607.323 1784.932 2607.044 1785.214 C 2606.765 1785.495 2606.485 1785.78 2606.2 1786.07 C 2603.055 1789.235 2599.893 1792.312 2596.643 1795.294 C 2593.393 1798.275 2590.055 1801.16 2586.56 1803.94 C 2585.33 1804.93 2584.128 1805.94 2582.94 1806.969 C 2581.753 1807.997 2580.58 1809.045 2579.41 1810.11 C 2577.18 1812.11 2574.893 1814.017 2572.56 1815.871 C 2570.228 1817.725 2567.85 1819.525 2565.44 1821.31 C 2565.005 1821.635 2564.568 1821.96 2564.126 1822.287 C 2563.685 1822.615 2563.24 1822.945 2562.79 1823.28 C 2550.08 1832.695 2536.973 1841.45 2523.483 1849.575 C 2509.993 1857.7 2496.12 1865.195 2481.88 1872.09 C 2480.96 1872.535 2480.045 1872.985 2479.133 1873.439 C 2478.22 1873.892 2477.31 1874.35 2476.4 1874.81 C 2439.52 1893.055 2399.788 1906.135 2357.358 1915.599 C 2314.928 1925.062 2269.8 1930.91 2222.13 1934.69 C 2221.495 1934.735 2221.178 1934.757 2220.859 1934.78 C 2220.54 1934.802 2220.22 1934.825 2219.58 1934.87 C 2188.11 1937.12 2156.39 1937.652 2124.7 1937.622 C 2093.01 1937.592 2061.35 1937 2030 1937 C 2030 2089.46 2030 2241.92 2030 2395.535 C 2030 2549.15 2035.363 2856.998 2034.513 2856.998 C 2041.729 2861.081 1619.721 2861.194 1605.91 2858.532 C 1592.099 2855.87 1577.005 2862.711 1576.495 2862.711 C 1576.495 2860.236 1555.571 2851.656 1555.571 2849.162 C 1555.571 2846.668 1538 2864.55 1538 2862 C 1524.635 2862 1511.27 2862 1497.804 2862 C 1484.338 2862 1470.77 2862 1457 2862 C 1454.42 2844.17 1453.13 2835.255 1452.221 2828.972 C 1451.313 2822.69 1450.785 2819.04 1449.73 2811.74 C 1449.665 2811.295 1449.603 2810.85 1449.539 2810.401 C 1449.475 2809.952 1449.41 2809.5 1449.34 2809.04 C 1448.93 2806.175 1448.518 2803.31 1448.104 2800.445 C 1447.69 2797.58 1447.275 2794.715 1446.86 2791.85 C 1446.72 2790.88 1446.58 2789.912 1446.44 2788.946 C 1446.3 2787.98 1446.16 2787.015 1446.02 2786.05 C 1441.845 2757.165 1437.675 2728.277 1433.51 2699.39 C 1429.345 2670.503 1425.185 2641.615 1421.03 2612.73 C 1420.865 2611.57 1420.698 2610.413 1420.53 2609.255 C 1420.363 2608.098 1420.195 2606.94 1420.03 2605.78 C 1417.82 2590.405 1415.608 2575.03 1413.395 2559.654 C 1411.183 2544.278 1408.97 2528.9 1406.76 2513.52 C 1405.915 2507.66 1405.073 2501.798 1404.23 2495.935 C 1403.388 2490.073 1402.545 2484.21 1401.7 2478.35 C 1401.21 2474.93 1400.718 2471.508 1400.225 2468.085 C 1399.733 2464.663 1399.24 2461.24 1398.75 2457.82 C 1398.295 2454.65 1397.84 2451.483 1397.384 2448.315 C 1396.928 2445.148 1396.47 2441.98 1396.01 2438.81 C 1395.845 2437.665 1395.683 2436.518 1395.52 2435.37 C 1395.358 2434.223 1395.195 2433.075 1395.03 2431.93 C 1394.8 2430.355 1394.573 2428.78 1394.346 2427.205 C 1394.12 2425.63 1393.895 2424.055 1393.67 2422.48 C 1393.605 2422.045 1393.543 2421.61 1393.48 2421.171 C 1393.418 2420.733 1393.355 2420.29 1393.29 2419.84 C 1392.595 2415.03 1391.883 2410.223 1391.164 2405.416 C 1390.445 2400.61 1389.72 2395.805 1389 2391 C 1318.05 2390.835 1247.1 2390.67 1175.613 2390.504 C 1104.125 2390.337 1032.1 2390.17 959 2390 C 958.835 2392.145 958.67 2394.29 958.504 2396.451 C 958.338 2398.613 958.17 2400.79 958 2403 C 957.768 2404.845 957.529 2406.685 957.28 2408.523 C 957.031 2410.36 956.772 2412.195 956.499 2414.03 C 956.424 2414.55 956.349 2415.068 956.273 2415.588 C 956.198 2416.108 956.121 2416.63 956.044 2417.16 C 955.795 2418.875 955.544 2420.59 955.293 2422.305 C 955.041 2424.02 954.788 2425.735 954.536 2427.45 C 954.354 2428.69 954.173 2429.933 953.992 2431.175 C 953.811 2432.418 953.63 2433.66 953.449 2434.9 C 953.057 2437.58 952.665 2440.263 952.273 2442.945 C 951.88 2445.628 951.487 2448.31 951.093 2450.99 C 950.514 2454.94 949.936 2458.888 949.359 2462.834 C 948.781 2466.78 948.205 2470.725 947.628 2474.67 C 946.672 2481.215 945.715 2487.76 944.757 2494.306 C 943.8 2500.853 942.841 2507.4 941.882 2513.95 C 940.943 2520.355 940.005 2526.76 939.067 2533.165 C 938.13 2539.57 937.193 2545.975 936.256 2552.38 C 936.198 2552.775 936.14 2553.173 936.082 2553.573 C 936.023 2553.973 935.965 2554.375 935.905 2554.78 C 935.612 2556.785 935.319 2558.79 935.026 2560.794 C 934.733 2562.798 934.44 2564.8 934.147 2566.8 C 933.561 2570.81 932.975 2574.82 932.389 2578.83 C 931.802 2582.84 931.216 2586.85 930.63 2590.86 C 930.543 2591.455 930.5 2591.753 930.456 2592.053 C 930.412 2592.353 930.368 2592.655 930.279 2593.26 C 929.054 2601.635 927.829 2610.013 926.603 2618.39 C 925.377 2626.768 924.151 2635.145 922.925 2643.52 C 920.517 2659.97 918.11 2676.423 915.704 2692.876 C 913.299 2709.33 910.895 2725.785 908.493 2742.24 C 908.419 2742.745 908.345 2743.25 908.271 2743.759 C 908.197 2744.268 908.122 2744.78 908.046 2745.3 C 907.553 2748.68 907.059 2752.06 906.566 2755.44 C 906.073 2758.82 905.58 2762.2 905.086 2765.58 C 902.74 2781.65 900.392 2797.72 898.044 2813.79 C 895.696 2829.86 893.348 2845.93 891 2862 C 834.24 2862 777.48 2862 720.29 2862 C 663.1 2862 605.48 2862 547 2862 C 547 2823.185 547 2803.778 547.774 2789.779 C 548.547 2775.78 550.094 2767.19 553.188 2750.01 C 553.797 2746.59 554.386 2743.168 554.965 2739.744 C 555.543 2736.32 556.111 2732.895 556.678 2729.47 C 557.502 2724.515 558.334 2719.563 559.175 2714.613 C 560.016 2709.663 560.865 2704.715 561.721 2699.77 C 562.97 2692.555 564.202 2685.338 565.424 2678.118 C 566.646 2670.898 567.858 2663.675 569.065 2656.45 C 569.631 2653.07 570.197 2649.69 570.763 2646.31 C 571.329 2642.93 571.896 2639.55 572.463 2636.17 C 572.519 2635.83 572.576 2635.493 572.632 2635.154 C 572.689 2634.815 572.746 2634.475 572.804 2634.13 C 573.661 2629.02 574.521 2623.913 575.383 2618.806 C 576.245 2613.7 577.11 2608.595 577.976 2603.49 C 578.091 2602.81 578.206 2602.13 578.321 2601.45 C 578.436 2600.77 578.551 2600.09 578.667 2599.41 C 578.723 2599.075 578.78 2598.74 578.837 2598.403 C 578.895 2598.065 578.952 2597.725 579.011 2597.38 C 581.711 2581.465 584.382 2565.545 587.024 2549.621 C 589.666 2533.698 592.278 2517.77 594.86 2501.84 C 594.946 2501.305 595.033 2500.77 595.12 2500.231 C 595.207 2499.693 595.295 2499.15 595.384 2498.6 C 596.248 2493.265 597.112 2487.93 597.975 2482.595 C 598.838 2477.26 599.701 2471.925 600.563 2466.59 C 601.679 2459.685 602.798 2452.78 603.919 2445.874 C 605.039 2438.968 606.161 2432.06 607.285 2425.15 C 607.371 2424.62 607.457 2424.09 607.544 2423.556 C 607.631 2423.023 607.719 2422.485 607.808 2421.94 C 608.244 2419.255 608.68 2416.573 609.117 2413.89 C 609.554 2411.208 609.99 2408.525 610.427 2405.84 C 610.952 2402.615 611.477 2399.39 612.001 2396.165 C 612.526 2392.94 613.051 2389.715 613.575 2386.49 C 616.167 2370.55 618.762 2354.613 621.358 2338.675 C 623.954 2322.738 626.551 2306.8 629.149 2290.86 C 629.245 2290.27 629.341 2289.683 629.437 2289.09 C 629.534 2288.498 629.631 2287.9 629.73 2287.29 C 631.191 2278.325 632.653 2269.36 634.115 2260.395 C 635.577 2251.43 637.038 2242.465 638.5 2233.5 C 640.058 2223.945 641.616 2214.39 643.174 2204.834 C 644.732 2195.277 646.29 2185.72 647.848 2176.16 C 647.944 2175.575 648.04 2174.987 648.137 2174.395 C 648.233 2173.803 648.331 2173.205 648.429 2172.6 C 651.287 2155.065 654.143 2137.533 656.998 2120 C 659.853 2102.468 662.707 2084.935 665.559 2067.4 C 665.689 2066.6 665.754 2066.2 665.82 2065.795 C 665.885 2065.39 665.952 2064.98 666.085 2064.16 C 667.481 2055.58 668.877 2046.998 670.272 2038.414 C 671.668 2029.83 673.064 2021.245 674.46 2012.66 C 680.273 1976.915 686.092 1941.17 691.915 1905.425 C 697.738 1869.68 703.566 1833.935 709.398 1798.19 C 715.621 1760.045 721.841 1721.9 728.057 1683.754 C 734.272 1645.608 740.483 1607.46 746.688 1569.31 C 746.776 1568.77 746.865 1568.228 746.954 1567.68 C 747.042 1567.133 747.132 1566.58 747.223 1566.02 C 749.375 1552.785 751.528 1539.55 753.68 1526.316 C 755.832 1513.083 757.984 1499.85 760.136 1486.62 C 762.649 1471.16 765.163 1455.7 767.678 1440.24 C 770.192 1424.78 772.706 1409.32 775.221 1393.86 C 775.626 1391.365 776.032 1388.873 776.437 1386.38 C 776.842 1383.887 777.247 1381.395 777.653 1378.9 C 781.085 1357.795 784.519 1336.69 787.953 1315.585 C 791.387 1294.48 794.822 1273.375 798.258 1252.27 C 798.347 1251.725 798.436 1251.177 798.526 1250.626 C 798.615 1250.075 798.705 1249.52 798.797 1248.96 C 800.547 1238.205 802.298 1227.452 804.048 1216.701 C 805.799 1205.95 807.549 1195.2 809.3 1184.45 C 810.424 1177.545 811.548 1170.64 812.672 1163.736 C 813.796 1156.833 814.919 1149.93 816.043 1143.03 C 816.136 1142.455 816.23 1141.883 816.324 1141.306 C 816.417 1140.73 816.512 1140.15 816.608 1139.56 C 819.335 1122.81 822.062 1106.058 824.788 1089.304 C 827.514 1072.55 830.239 1055.795 832.964 1039.04 C 833.226 1037.43 833.489 1035.817 833.751 1034.204 C 834.014 1032.59 834.276 1030.975 834.538 1029.36 C 835.324 1024.53 836.111 1019.697 836.897 1014.864 C 837.683 1010.03 838.469 1005.195 839.255 1000.36 C 839.604 998.212 839.954 996.065 840.303 993.917 C 840.652 991.77 841.001 989.622 841.351 987.474 C 841.526 986.399 841.701 985.324 841.875 984.249 C 842.05 983.174 842.225 982.099 842.4 981.024 C 846.701 954.576 851.004 928.129 855.31 901.682 C 859.615 875.236 863.923 848.789 868.235 822.344 C 868.43 821.146 868.625 819.947 868.821 818.748 C 869.016 817.55 869.211 816.351 869.407 815.152 C 871.162 804.384 872.918 793.616 874.674 782.848 C 876.43 772.079 878.186 761.311 879.943 750.543 C 881.092 743.494 882.242 736.444 883.392 729.395 C 884.542 722.345 885.691 715.296 886.84 708.246 C 886.935 707.668 887.029 707.089 887.124 706.506 C 887.219 705.923 887.315 705.335 887.412 704.739 C 890.223 687.499 893.029 670.258 895.83 653.016 C 898.632 635.775 901.43 618.533 904.224 601.29 C 904.795 597.768 905.365 594.246 905.936 590.724 C 906.507 587.202 907.078 583.68 907.649 580.158 C 908.02 577.87 908.391 575.581 908.762 573.293 C 909.133 571.005 909.504 568.717 909.875 566.429 C 909.966 565.87 910.056 565.311 910.147 564.748 C 910.239 564.185 910.331 563.618 910.424 563.042 C 911.49 556.469 912.555 549.896 913.619 543.323 C 914.683 536.75 915.747 530.176 916.809 523.602 C 917.463 519.558 918.117 515.513 918.772 511.469 C 919.427 507.425 920.082 503.381 920.738 499.337 C 921.186 496.574 921.633 493.81 922.08 491.047 C 922.527 488.284 922.973 485.521 923.418 482.757 C 923.688 481.084 923.959 479.411 924.23 477.739 C 924.501 476.066 924.773 474.394 925.045 472.721 C 925.169 471.958 925.293 471.194 925.416 470.431 C 925.539 469.667 925.662 468.904 925.784 468.14 C 925.951 467.102 926.119 466.064 926.287 465.026 C 926.456 463.988 926.625 462.951 926.794 461.913 C 926.934 461.051 927.003 460.619 927.074 460.184 C 927.144 459.748 927.216 459.308 927.358 458.427 C 927.718 456.506 928.142 454.597 928.594 452.695 C 929.046 450.793 929.526 448.897 930 447 C 1014.975 447 1099.95 447 1185.569 447 C 1271.188 447 1357.45 447 1445 447 C 1446.69 455.438 1447.535 459.656 1448.093 462.599 C 1448.65 465.541 1448.92 467.208 1449.46 470.54 C 1449.52 470.911 1449.58 471.281 1449.64 471.654 C 1449.7 472.027 1449.76 472.403 1449.82 472.784 C 1450.02 473.997 1450.218 475.21 1450.414 476.424 C 1450.61 477.637 1450.805 478.851 1451 480.064 C 1451.145 480.952 1451.29 481.84 1451.435 482.728 C 1451.58 483.616 1451.725 484.505 1451.87 485.393 C 1452.26 487.807 1452.653 490.221 1453.045 492.636 C 1453.438 495.05 1453.83 497.465 1454.22 499.879 C 1454.64 502.475 1455.06 505.071 1455.481 507.667 C 1455.903 510.263 1456.325 512.859 1456.75 515.454 C 1457.475 519.925 1458.2 524.395 1458.925 528.866 C 1459.65 533.336 1460.375 537.807 1461.1 542.277 C 1462.245 549.358 1463.393 556.439 1464.541 563.519 C 1465.69 570.6 1466.84 577.681 1467.99 584.761 C 1468.385 587.165 1468.778 589.569 1469.169 591.973 C 1469.56 594.376 1469.95 596.78 1470.34 599.184 C 1470.435 599.781 1470.533 600.378 1470.631 600.98 C 1470.73 601.581 1470.83 602.188 1470.93 602.803 C 1471.62 607.06 1472.31 611.317 1473 615.575 C 1473.69 619.832 1474.38 624.09 1475.07 628.348 C 1477.545 643.575 1480.02 658.802 1482.496 674.028 C 1484.973 689.255 1487.45 704.481 1489.93 719.707 C 1490.01 720.188 1490.088 720.669 1490.165 721.153 C 1490.243 721.638 1490.32 722.126 1490.4 722.621 C 1491.325 728.287 1492.25 733.953 1493.174 739.619 C 1494.098 745.284 1495.02 750.95 1495.94 756.616 C 1496.7 761.253 1497.458 765.889 1498.214 770.526 C 1498.97 775.162 1499.725 779.799 1500.48 784.435 C 1502.23 795.196 1503.983 805.957 1505.736 816.718 C 1507.49 827.478 1509.245 838.239 1511 849 C 1516.445 882.413 1539.71 1022.835 1560.201 1166.694 C 1580.693 1310.554 1598.41 1457.85 1592.76 1505.01 C 1579.935 1402.23 1588.463 1387.72 1597.225 1287.806 C 1605.988 1187.892 1614.985 1002.574 1603.1 558.177 C 1603.755 558.012 1604.88 531.703 1606.011 505.393 C 1607.143 479.083 1608.28 452.772 1608.96 452.602 C 1608.96 449.962 1629.968 449.657 1650.975 449.331 C 1671.983 449.006 1692.99 448.66 1692.99 445.94 C 1693.485 445.94 1770.698 446.458 1847.871 446.976 C 1925.045 447.494 2002.18 448.012 2002.52 448.012 M 2030 850 C 2030 953.125 2030 1056.25 2030 1160.156 C 2030 1264.063 2030 1368.75 2030 1475 C 2084.805 1479.815 2112.208 1482.223 2138.583 1478.098 C 2164.958 1473.973 2190.305 1463.315 2241 1442 C 2256.095 1426.39 2265.388 1406.68 2270.903 1385.665 C 2276.418 1364.65 2278.155 1342.33 2278.14 1321.5 C 2278.14 1320.79 2278.143 1320.08 2278.145 1319.37 C 2278.148 1318.66 2278.15 1317.95 2278.15 1317.24 C 2278.155 1315.31 2278.158 1313.38 2278.159 1311.45 C 2278.16 1309.52 2278.16 1307.59 2278.16 1305.66 C 2278.16 1303.575 2278.163 1301.488 2278.166 1299.399 C 2278.17 1297.31 2278.175 1295.22 2278.18 1293.13 C 2278.185 1288.57 2278.19 1284.01 2278.194 1279.45 C 2278.198 1274.89 2278.2 1270.33 2278.2 1265.77 C 2278.2 1262.915 2278.203 1260.06 2278.205 1257.205 C 2278.208 1254.35 2278.21 1251.495 2278.21 1248.64 C 2278.215 1240.715 2278.22 1232.79 2278.225 1224.866 C 2278.23 1216.942 2278.235 1209.02 2278.24 1201.1 C 2278.24 1200.59 2278.24 1200.082 2278.24 1199.572 C 2278.24 1199.062 2278.24 1198.55 2278.24 1198.03 C 2278.24 1197.52 2278.24 1197.012 2278.24 1196.501 C 2278.24 1195.99 2278.24 1195.475 2278.24 1194.95 C 2278.24 1193.925 2278.24 1192.897 2278.24 1191.87 C 2278.24 1190.843 2278.24 1189.815 2278.24 1188.79 C 2278.24 1188.28 2278.24 1187.77 2278.24 1187.255 C 2278.24 1186.74 2278.24 1186.22 2278.24 1185.69 C 2278.24 1177.45 2278.245 1169.207 2278.254 1160.964 C 2278.263 1152.72 2278.275 1144.475 2278.29 1136.23 C 2278.3 1127.74 2278.308 1119.25 2278.313 1110.76 C 2278.318 1102.27 2278.32 1093.78 2278.32 1085.29 C 2278.32 1080.53 2278.323 1075.772 2278.328 1071.016 C 2278.333 1066.26 2278.34 1061.505 2278.35 1056.75 C 2278.355 1052.695 2278.36 1048.64 2278.363 1044.585 C 2278.365 1040.53 2278.365 1036.475 2278.36 1032.42 C 2278.36 1030.36 2278.36 1028.3 2278.361 1026.239 C 2278.363 1024.177 2278.365 1022.115 2278.37 1020.05 C 2278.45 996.361 2277.653 971.058 2272.438 947.197 C 2267.223 923.336 2257.59 900.917 2240 883 C 2213.615 857.593 2176.363 849.343 2138.083 847.445 C 2099.803 845.547 2060.495 850 2030 850 M 1170 870 C 1169.275 873.051 1168.638 876.096 1168.075 879.154 C 1167.513 882.213 1167.025 885.285 1166.6 888.391 C 1166.54 888.844 1166.478 889.297 1166.414 889.753 C 1166.35 890.209 1166.285 890.669 1166.22 891.136 C 1166.01 892.65 1165.8 894.163 1165.59 895.677 C 1165.38 897.191 1165.17 898.705 1164.96 900.218 C 1164.81 901.317 1164.658 902.415 1164.505 903.513 C 1164.353 904.612 1164.2 905.71 1164.05 906.808 C 1163.63 909.822 1163.21 912.836 1162.791 915.851 C 1162.373 918.865 1161.955 921.88 1161.54 924.894 C 1161.135 927.805 1160.733 930.715 1160.33 933.625 C 1159.928 936.536 1159.525 939.446 1159.12 942.356 C 1158.29 948.316 1157.463 954.275 1156.636 960.234 C 1155.81 966.193 1154.985 972.153 1154.16 978.112 C 1152.96 986.764 1151.76 995.416 1150.56 1004.067 C 1149.36 1012.719 1148.16 1021.37 1146.96 1030.02 C 1146.475 1033.5 1145.99 1036.983 1145.506 1040.465 C 1145.023 1043.948 1144.54 1047.43 1144.06 1050.91 C 1144.005 1051.295 1143.95 1051.68 1143.895 1052.069 C 1143.84 1052.458 1143.785 1052.85 1143.73 1053.25 C 1142.91 1059.18 1142.088 1065.11 1141.265 1071.04 C 1140.443 1076.97 1139.62 1082.9 1138.8 1088.83 C 1135.99 1109.06 1133.18 1129.293 1130.369 1149.525 C 1127.558 1169.758 1124.745 1189.99 1121.93 1210.22 C 1121.84 1210.88 1121.748 1211.543 1121.655 1212.205 C 1121.563 1212.868 1121.47 1213.53 1121.38 1214.19 C 1120.55 1220.15 1119.72 1226.113 1118.89 1232.075 C 1118.06 1238.038 1117.23 1244 1116.4 1249.96 C 1114.36 1264.635 1112.318 1279.31 1110.275 1293.985 C 1108.233 1308.66 1106.19 1323.335 1104.15 1338.01 C 1104.005 1339.07 1103.858 1340.13 1103.71 1341.19 C 1103.563 1342.25 1103.415 1343.31 1103.27 1344.37 C 1097.56 1385.41 1091.853 1426.448 1081.251 1502.721 C 1070.65 1578.995 1055.155 1690.505 1029.87 1872.49 C 1029.315 1876.485 1028.76 1880.48 1028.205 1884.475 C 1027.65 1888.47 1027.095 1892.465 1026.54 1896.46 C 1024.69 1909.8 1022.838 1923.14 1020.985 1936.48 C 1019.133 1949.82 1017.28 1963.16 1015.43 1976.5 C 1014.71 1981.67 1013.993 1986.84 1013.275 1992.01 C 1012.558 1997.18 1011.84 2002.35 1011.12 2007.52 C 1010.675 2010.725 1010.23 2013.933 1009.785 2017.14 C 1009.34 2020.347 1008.895 2023.555 1008.45 2026.76 C 1008.205 2028.525 1007.96 2030.29 1007.715 2032.055 C 1007.47 2033.82 1007.225 2035.585 1006.98 2037.35 C 1006.72 2039.195 1006.463 2041.043 1006.205 2042.89 C 1005.948 2044.738 1005.69 2046.585 1005.43 2048.43 C 1005.36 2048.96 1005.288 2049.492 1005.214 2050.029 C 1005.14 2050.565 1005.065 2051.105 1004.99 2051.65 C 1004.92 2052.13 1004.853 2052.608 1004.786 2053.088 C 1004.72 2053.568 1004.655 2054.05 1004.59 2054.54 C 1004.53 2054.95 1004.473 2055.36 1004.415 2055.774 C 1004.358 2056.188 1004.3 2056.605 1004.24 2057.03 C 1004.1 2058.015 1004.03 2058.507 1004 2059.004 C 1003.97 2059.5 1003.98 2060 1004 2061 C 1060.1 2061 1116.2 2061 1172.725 2061 C 1229.25 2061 1286.2 2061 1344 2061 C 1339.15 2026.42 1336.725 2009.13 1334.296 1991.841 C 1331.868 1974.553 1329.435 1957.265 1324.57 1922.69 C 1324.485 1922.105 1324.403 1921.52 1324.32 1920.931 C 1324.238 1920.343 1324.155 1919.75 1324.07 1919.15 C 1319.76 1888.58 1315.43 1858.015 1311.09 1827.451 C 1306.75 1796.888 1302.4 1766.325 1298.05 1735.76 C 1297.8 1734.025 1297.553 1732.288 1297.305 1730.549 C 1297.058 1728.81 1296.81 1727.07 1296.56 1725.33 C 1296.51 1724.985 1296.46 1724.64 1296.41 1724.293 C 1296.36 1723.945 1296.31 1723.595 1296.26 1723.24 C 1296.16 1722.54 1296.06 1721.84 1295.96 1721.14 C 1295.86 1720.44 1295.76 1719.74 1295.66 1719.04 C 1295.56 1718.34 1295.46 1717.638 1295.361 1716.935 C 1295.263 1716.233 1295.165 1715.53 1295.07 1714.83 C 1293.97 1707.14 1292.873 1699.448 1291.776 1691.754 C 1290.68 1684.06 1289.585 1676.365 1288.49 1668.67 C 1288.34 1667.625 1288.19 1666.58 1288.041 1665.536 C 1287.893 1664.493 1287.745 1663.45 1287.6 1662.41 C 1283.68 1634.875 1279.768 1607.343 1275.861 1579.809 C 1271.955 1552.275 1268.055 1524.74 1264.16 1497.2 C 1262.785 1487.5 1261.413 1477.798 1260.04 1468.095 C 1258.668 1458.393 1257.295 1448.69 1255.92 1438.99 C 1255.84 1438.395 1255.758 1437.803 1255.673 1437.206 C 1255.588 1436.61 1255.5 1436.01 1255.41 1435.4 C 1252.105 1412.04 1248.795 1388.68 1245.481 1365.321 C 1242.168 1341.962 1238.85 1318.605 1235.53 1295.25 C 1235.27 1293.4 1235.008 1291.55 1234.745 1289.7 C 1234.483 1287.85 1234.22 1286 1233.96 1284.15 C 1231.535 1267.095 1229.113 1250.04 1226.69 1232.985 C 1224.268 1215.93 1221.845 1198.875 1219.42 1181.82 C 1218.075 1172.35 1216.73 1162.88 1215.385 1153.41 C 1214.04 1143.94 1212.695 1134.47 1211.35 1125 C 1211.105 1123.31 1210.863 1121.618 1210.621 1119.925 C 1210.38 1118.232 1210.14 1116.54 1209.9 1114.85 C 1207.05 1094.795 1204.205 1074.74 1201.366 1054.684 C 1198.528 1034.628 1195.695 1014.571 1192.87 994.512 C 1192.665 993.063 1192.46 991.614 1192.255 990.165 C 1192.05 988.716 1191.845 987.267 1191.64 985.818 C 1190.395 976.999 1189.153 968.179 1187.91 959.36 C 1186.668 950.541 1185.425 941.721 1184.18 932.901 C 1183.705 929.497 1183.228 926.093 1182.749 922.689 C 1182.27 919.284 1181.79 915.88 1181.31 912.476 C 1180.98 910.135 1180.65 907.793 1180.32 905.451 C 1179.99 903.109 1179.66 900.767 1179.33 898.425 C 1179.13 897.003 1178.93 895.582 1178.73 894.16 C 1178.53 892.738 1178.33 891.316 1178.13 889.895 C 1177.995 888.934 1177.86 887.974 1177.725 887.013 C 1177.59 886.053 1177.455 885.092 1177.32 884.131 C 1177.24 883.561 1177.16 882.992 1177.08 882.418 C 1177 881.844 1176.92 881.266 1176.84 880.679 C 1176.77 880.187 1176.7 879.696 1176.63 879.201 C 1176.56 878.705 1176.49 878.206 1176.42 877.7 C 1176.22 876.407 1176 875.122 1175.763 873.841 C 1175.525 872.559 1175.27 871.281 1175 870 C 1174.175 870 1173.35 870 1172.519 870 C 1171.688 870 1170.85 870 1170 870" fill="#FE0312" style="stroke-miterlimit: 4.83; stroke-width: 28px; stroke: rgb(0, 0, 0);"/>
  <path d="M0 0 C169.95 0 339.9 0 515 0 C518.37497251 16.87486257 518.37497251 16.87486257 519.45639038 23.54048157 C519.63774301 24.65113719 519.63774301 24.65113719 519.82275933 25.78423029 C520.21823911 28.21031593 520.60987345 30.63700468 521.00146484 33.0637207 C521.29025047 34.84030744 521.57927976 36.61685459 521.86852932 38.39336586 C522.6540136 43.22191375 523.4361327 48.05100135 524.21767449 52.8801887 C525.05801619 58.06877646 525.90158857 63.25683901 526.74479675 68.44496155 C528.19698127 77.38260689 529.64725847 86.32055995 531.09622192 95.25872803 C533.40110051 109.47649014 535.7098793 123.6936175 538.01928711 137.91064453 C538.80371413 142.7399262 539.58811797 147.56921164 540.37251282 152.39849854 C540.66458847 154.1966947 540.66458847 154.1966947 540.96256465 156.03121805 C542.34987416 164.5726431 543.73665555 173.1141538 545.12321472 181.65570068 C549.92105414 211.21069687 554.72608048 240.76450859 559.54296875 270.31640625 C559.69017797 271.21956188 559.83738719 272.12271751 559.9890573 273.05324149 C561.45565034 282.05092977 562.92248241 291.04857906 564.38947695 300.04620188 C567.47198683 318.95244845 570.55266252 337.85899384 573.6328125 356.765625 C573.7799709 357.66890856 573.92712929 358.57219212 574.07874703 359.50284791 C582.04071797 408.37542558 589.9913309 457.24985083 597.9375 506.125 C598.20131493 507.74765054 598.20131493 507.74765054 598.47045946 509.40308189 C605.7390281 554.11042401 613.00583308 598.81804807 620.23828125 643.53125 C620.35740088 644.2676434 620.47652052 645.00403679 620.59924984 645.76274514 C622.96708948 660.40086372 625.33325204 675.0392515 627.69481659 689.67838383 C628.75294073 696.23751466 629.81181297 702.79652461 630.87109375 709.35546875 C631.07749733 710.63350561 631.28390091 711.91154247 631.49655914 713.22830772 C634.57942174 732.30762849 637.69825199 751.38084231 640.83587039 770.45122433 C641.7132642 775.78443504 642.58923754 781.11787742 643.46426392 786.45147705 C643.64737509 787.56750667 643.64737509 787.56750667 643.83418548 788.70608234 C644.32334626 791.68752235 644.81248341 794.66896621 645.30145431 797.65043736 C646.71298509 806.2566439 648.12974998 814.8619452 649.55623108 823.46568686 C650.53703119 829.38412114 651.50894987 835.30397952 652.4777813 841.22438622 C652.87352202 843.63318669 653.27226978 846.04149551 653.67436409 848.44924355 C654.22696656 851.76037878 654.76860001 855.07314414 655.30786133 858.38647461 C655.46612774 859.31830378 655.62439415 860.25013294 655.78745651 861.21019936 C656.42889807 865.21051271 656.98156984 869.11889425 657.06642199 873.17549092 C657.26774679 882.78639311 658.8791691 891.78030642 660.8895216 901.17105865 C669.94222361 944.48302793 672.37003317 987.42556289 672.56330872 1031.55407715 C672.56663437 1032.29300146 672.56996002 1033.03192577 672.57338645 1033.79324172 C672.65559947 1052.8665774 672.61784461 1071.93926576 672.53932178 1091.01253767 C672.48585362 1104.01226472 672.46467321 1117.01166796 672.47039986 1130.01150322 C672.47095935 1131.33882287 672.47095935 1131.33882287 672.47153015 1132.69295707 C672.4735639 1137.20759369 672.47605919 1141.72222994 672.47871703 1146.23686624 C672.49685664 1178.63702522 672.45297005 1211.03684864 672.37449074 1243.43690491 C672.29711911 1275.45713477 672.24733928 1307.4772206 672.23340416 1339.49754333 C672.23295681 1340.49728196 672.23250945 1341.49702058 672.23204854 1342.52705431 C672.22797612 1351.66005672 672.22423625 1360.79305924 672.22089487 1369.92606194 C672.21258985 1392.61508559 672.20012309 1415.30410593 672.18481731 1437.99312592 C672.18412419 1439.02557075 672.18343106 1440.05801558 672.18271693 1441.12174662 C672.14875548 1491.16796966 672.06680659 1541.21409796 671.98071289 1591.26025391 C671.9509174 1608.59596688 671.92133589 1625.93168018 671.89263916 1643.26739502 C671.89085882 1644.34276982 671.88907848 1645.41814462 671.88724419 1646.52610654 C671.80454937 1696.65352333 671.75626722 1746.78095654 671.71668682 1796.90842376 C671.71411204 1800.16853493 671.71152252 1803.4286461 671.70892999 1806.68875726 C671.69177066 1828.29630698 671.6752006 1849.90385712 671.65902482 1871.51140759 C671.62684243 1914.4936198 671.59120109 1957.47582892 671.55317821 2000.45803635 C671.55136808 2002.50429237 671.54956037 2004.5505484 671.54775509 2006.59680442 C671.46661562 2098.54440059 671.34526963 2190.49192761 671.20629883 2282.43945312 C671.20499967 2283.29918963 671.20370051 2284.15892613 671.20236198 2285.04471525 C671.1373754 2328.02981411 671.07008369 2371.01490914 671 2414 C666.98159828 2414.14272577 662.96311612 2414.2829219 658.9445523 2414.42100996 C656.92404365 2414.49092771 654.9035999 2414.5627134 652.88315868 2414.63455343 C639.63093003 2415.08767684 626.39126428 2415.12753279 613.1328125 2415.09765625 C610.61978179 2415.09578287 608.1067507 2415.09436334 605.59371948 2415.09336853 C599.09380012 2415.08961558 592.59390439 2415.07985044 586.09399414 2415.06866455 C579.4155304 2415.05829171 572.73706329 2415.05383751 566.05859375 2415.04882812 C553.03905262 2415.03821885 540.01952759 2415.02143582 527 2415 C523.61784794 2391.61689852 520.23760131 2368.23352176 516.85839319 2344.84999466 C516.57878404 2342.91515664 516.29917027 2340.9803193 516.01955175 2339.04548264 C507.67088012 2281.27628288 499.34170829 2223.50429084 491.02908012 2165.72989503 C490.69585675 2163.41393891 490.36262663 2161.09798376 490.02939439 2158.78202891 C485.60447553 2128.0289062 481.18038924 2097.27566381 476.75837016 2066.52212399 C475.0726504 2054.79862356 473.38654032 2043.07517931 471.70016885 2031.35177261 C470.71577016 2024.50823805 469.73160288 2017.66467038 468.74803543 2010.82101631 C467.83720148 2004.4835164 466.92581518 1998.14609616 466.01401627 1991.80873501 C465.68418443 1989.51555626 465.3545563 1987.22234819 465.02516162 1984.92910659 C464.57280585 1981.78000796 464.11968359 1978.63102044 463.66639709 1975.48205566 C463.54112707 1974.60867005 463.41585705 1973.73528443 463.28679097 1972.83543259 C461.90055383 1963.21689774 460.44164792 1953.61098612 459 1944 C317.1 1943.67 175.2 1943.34 29 1943 C28.67 1947.29 28.34 1951.58 28 1956 C27.535961 1959.68881361 27.04471615 1963.35755952 26.4981842 1967.03337097 C26.34827841 1968.06616365 26.19837261 1969.09895633 26.04392421 1970.16304576 C25.54524255 1973.59133334 25.0403306 1977.01867253 24.53540039 1980.44604492 C24.1726476 1982.93080707 23.81028313 1985.41562593 23.44827366 1987.90049648 C22.66581785 1993.26523359 21.88066785 1998.62956535 21.09306717 2003.99354935 C19.93425195 2011.88580197 18.78048625 2019.77878683 17.62780526 2027.67193741 C15.71583511 2040.76349629 13.7998902 2053.85447037 11.88156128 2066.94509888 C10.0041361 2079.75671118 8.1285275 2092.56858724 6.25540161 2105.38082886 C6.13951069 2106.17352352 6.02361978 2106.96621817 5.90421701 2107.78293388 C5.31840366 2111.78998874 4.73262913 2115.79704927 4.14687502 2119.80411279 C2.97463551 2127.82318661 1.80215621 2135.84222536 0.6295929 2143.86125183 C0.45570512 2145.05045575 0.45570512 2145.05045575 0.27830445 2146.26368398 C-2.17117117 2163.015039 -4.62304102 2179.76604334 -7.0751816 2196.51700842 C-11.89243818 2229.42447088 -16.70325386 2262.3328683 -21.5078125 2295.2421875 C-21.6550506 2296.25070471 -21.80228869 2297.25922193 -21.95398855 2298.29830027 C-22.94087013 2305.05807507 -23.92770727 2311.81785636 -24.91455078 2318.57763672 C-29.60736046 2350.71876623 -34.30403186 2382.8593318 -39 2415 C-152.52 2415 -266.04 2415 -383 2415 C-383 2337.37016061 -383 2337.37016061 -376.81194305 2303.01390457 C-375.59402444 2296.17329501 -374.45630629 2289.32036819 -373.32232666 2282.46542358 C-371.67557606 2272.56103111 -369.991529 2262.66364956 -368.27923584 2252.77038574 C-365.78218768 2238.33960683 -363.35026979 2223.89843762 -360.93502164 2209.45381069 C-359.80427925 2202.69131028 -358.67104126 2195.92922816 -357.53726196 2189.16723633 C-357.42463103 2188.4953829 -357.31200009 2187.82352947 -357.1959561 2187.13131684 C-355.48276783 2176.91410427 -353.75751358 2166.69897588 -352.02450562 2156.48510742 C-351.79426302 2155.12793521 -351.56402207 2153.77076272 -351.33378279 2152.41358995 C-351.22006942 2151.74330907 -351.10635606 2151.07302819 -350.98919683 2150.38243577 C-345.58930962 2118.55241649 -340.30463326 2086.70513012 -335.140625 2054.8359375 C-334.96744232 2053.76748455 -334.79425963 2052.69903159 -334.61582899 2051.59820127 C-332.88691899 2040.93055074 -331.16087663 2030.26243814 -329.43708026 2019.59396017 C-327.20469349 2005.7785895 -324.96248588 1991.96483144 -322.71533203 1978.15185547 C-322.54289482 1977.09190219 -322.37045762 1976.03194891 -322.19279504 1974.93987584 C-321.31981857 1969.57415393 -320.44666166 1964.2084614 -319.57340622 1958.84278488 C-318.52347675 1952.39132575 -317.47416914 1945.93976557 -316.42495728 1939.4881897 C-311.24054705 1907.61082239 -306.0477667 1875.73482177 -300.8515625 1843.859375 C-300.65971209 1842.68249131 -300.46786169 1841.50560761 -300.27019763 1840.29306078 C-297.34712026 1822.36198805 -294.42358709 1804.43098963 -291.5 1786.5 C-288.38387183 1767.38806041 -285.26788007 1748.27609858 -282.15234375 1729.1640625 C-281.96054511 1727.98748943 -281.76874648 1726.81091636 -281.57113576 1725.59868956 C-275.85499984 1690.53295103 -270.14486331 1655.46624047 -264.44140625 1620.3984375 C-264.18095906 1618.79708246 -264.18095906 1618.79708246 -263.9152503 1617.16337681 C-261.12330859 1599.99700269 -258.33183293 1582.83055278 -255.54037094 1565.66410065 C-243.91466302 1494.17060406 -232.26556264 1422.68094713 -220.60258675 1351.19352102 C-208.15594565 1274.90254577 -195.72175403 1198.60956606 -183.3125 1122.3125 C-183.13577806 1121.22595281 -182.95905612 1120.13940561 -182.77697897 1119.01993275 C-178.47213699 1092.55221792 -174.16808472 1066.08437471 -169.86445522 1039.61646271 C-164.83699851 1008.69697717 -159.80841068 977.77767558 -154.77961385 946.85840797 C-153.96875418 941.87287538 -153.15791329 936.88733973 -152.34708774 931.90180159 C-145.48202788 889.69051723 -138.61384209 847.47974256 -131.7421875 805.26953125 C-131.56425289 804.17653937 -131.38631829 803.0835475 -131.20299172 801.95743465 C-127.7023014 780.45395617 -124.20141285 758.95050995 -120.70040894 737.44708252 C-118.45254448 723.64051463 -116.20474141 709.83393676 -113.95703125 696.02734375 C-113.77080381 694.88343957 -113.58457637 693.73953539 -113.39270568 692.56096745 C-107.93791365 659.05459953 -102.48564149 625.54782253 -97.03609538 592.04060102 C-96.51145021 588.8147551 -95.98679847 585.58891026 -95.46214485 582.36306572 C-93.88978656 572.69537511 -92.31744737 563.02768139 -90.74511105 553.3599872 C-90.04655071 549.06481209 -89.34798723 544.76963749 -88.64942312 540.47446299 C-88.29969938 538.32415494 -87.94997716 536.17384665 -87.60025644 534.02353811 C-78.99758939 481.12882736 -70.38886779 428.23511063 -61.765625 375.34375 C-61.37481805 372.94664077 -60.98401185 370.54953142 -60.59320641 368.15242195 C-57.08203666 346.61590399 -53.57060558 325.07942865 -50.05776978 303.54318237 C-47.7580647 289.44423444 -45.45878968 275.34521644 -43.16015625 261.24609375 C-42.97147295 260.08877707 -42.78278965 258.93146039 -42.58838868 257.73907351 C-36.96714925 223.25871255 -31.36427289 188.77540532 -25.77639008 154.28962326 C-24.63500609 147.24564504 -23.49311443 140.20174918 -22.35113525 133.15786743 C-21.6092354 128.58148477 -20.86735878 124.00509835 -20.12548828 119.42871094 C-19.94432339 118.31119186 -19.76315849 117.19367279 -19.57650375 116.0422895 C-17.44542085 102.89609653 -15.31667264 89.74952998 -13.19168824 76.60234982 C-11.88413004 68.51343577 -10.57424648 60.42490054 -9.26253539 52.3366589 C-8.36645181 46.81045622 -7.47318606 41.28380883 -6.5822041 35.75678146 C-6.04211133 32.41101202 -5.49917021 29.06570965 -4.95537877 25.72053957 C-4.7077644 24.19375975 -4.461311 22.66679108 -4.21614909 21.13961554 C-3.88272933 19.0636837 -3.54506584 16.9884838 -3.20637512 14.91340637 C-2.92725643 13.187597 -2.92725643 13.187597 -2.64249897 11.4269228 C-1.92207699 7.58437886 -0.94819183 3.79276732 0 0 Z M240 423 C238.55363988 429.10176152 237.45145134 435.17921859 236.60380554 441.39073181 C236.47716518 442.29657784 236.35052482 443.20242387 236.22004688 444.13571978 C235.79775328 447.16284149 235.38069962 450.19066128 234.96362305 453.21850586 C234.658277 455.41521808 234.35260567 457.61188512 234.04663754 459.80851078 C233.20795319 465.83642041 232.37383689 471.86495463 231.54044962 477.89359856 C230.7349873 483.71483802 229.92603602 489.53559184 229.11713868 495.35635482 C227.4609997 507.27460074 225.8082015 519.19330767 224.15725708 531.11227417 C221.76058811 548.41472077 219.35910522 565.71649727 216.95670806 583.01814933 C215.98976908 589.98202045 215.02297707 596.94591197 214.05619812 603.9098053 C213.94909417 604.68128614 213.84199023 605.45276698 213.7316407 606.24762603 C212.08530059 618.10654931 210.43978465 629.96558678 208.79475403 641.82469177 C203.18148284 682.29055118 197.56048989 722.7553263 191.9296875 763.21875 C191.74552617 764.54218306 191.56136554 765.86561622 191.37720561 767.18904948 C189.71781119 779.11398722 188.05832769 791.03891256 186.39871883 802.96382046 C182.31433258 832.31180858 178.23211341 861.66009807 174.15037903 891.00845513 C173.85537282 893.12959597 173.56036431 895.25073649 173.26535535 897.37187696 C161.85027289 979.44751699 150.44303125 1061.52424706 99.87265038 1425.49263799 C98.76279659 1433.48315962 97.65291213 1441.47367698 96.54299903 1449.46419036 C92.83713866 1476.14358689 89.13195594 1502.8230771 85.42911911 1529.50289345 C83.99402941 1539.84255502 82.55794212 1550.18207674 81.11996835 1560.52133763 C80.22798768 1566.93497856 79.33681621 1573.34873148 78.44640356 1579.76259029 C77.95650759 1583.29113192 77.46616691 1586.81961022 76.97459984 1590.34791946 C76.46011871 1594.04216231 75.94724351 1597.73662439 75.43481445 1601.43115234 C75.2862607 1602.49471325 75.13770695 1603.55827415 74.98465157 1604.65406418 C74.85281912 1605.60703007 74.72098667 1606.55999596 74.5851593 1607.5418396 C74.47108388 1608.36221899 74.35700846 1609.18259838 74.2394762 1610.02783775 C73.95981906 1611.99979461 73.95981906 1611.99979461 74 1614 C186.2 1614 298.4 1614 414 1614 C404.29457837 1544.84410319 404.29457837 1544.84410319 394.56640625 1475.69140625 C394.40176227 1474.52275504 394.23711829 1473.35410384 394.06748509 1472.15003896 C385.45350064 1411.01219846 376.75313964 1349.88667389 368.04554069 1288.76211417 C367.550351 1285.28601909 367.05517797 1281.80992164 366.56000519 1278.33382416 C366.46146469 1277.64207312 366.36292419 1276.95032207 366.26139762 1276.23760888 C366.06201782 1274.83796813 365.86263818 1273.43832736 365.6632587 1272.03868657 C365.46359871 1270.63707707 365.26393839 1269.23546761 365.06427774 1267.83385819 C362.87222817 1252.44575371 360.68033251 1237.05762732 358.48870611 1221.66946256 C358.1913653 1219.5817437 357.89401721 1217.49402587 357.59666824 1215.40630817 C349.75423297 1160.34315674 341.94822473 1105.27488319 334.15842772 1050.20426083 C331.41351028 1030.79884937 328.66819922 1011.39349367 325.921875 991.98828125 C325.75421749 990.80361204 325.58655998 989.61894283 325.41382194 988.39837456 C318.80194345 941.68048497 312.17001733 894.9654498 305.53417298 848.25095928 C305.00853504 844.55058472 304.48291522 840.85020759 303.95729517 837.14983049 C299.11193343 803.03842662 294.26615684 768.92708168 289.41781616 734.81610107 C286.72598447 715.87744216 284.03474413 696.9386993 281.34418321 677.99985981 C280.86343626 674.61590477 280.38265184 671.23195506 279.90183425 667.84801006 C274.20286435 627.73888041 268.51904897 587.62765557 262.86451934 547.51223458 C262.45602419 544.61427151 262.0474815 541.71631514 261.63892519 538.81836069 C259.15222309 521.17951302 256.66610381 503.54058411 254.18509488 485.90093465 C253.22746306 479.09257246 252.26891316 472.28433994 251.30966975 465.47620462 C250.64984684 460.79268156 249.99126704 456.10898607 249.33367829 451.42514883 C248.93414338 448.58152236 248.5334139 445.73806522 248.13233352 442.89465635 C247.86173961 440.97372377 247.59259377 439.05258737 247.32349676 437.13144451 C247.16252699 435.9920245 247.00155722 434.85260448 246.83570957 433.67865658 C246.69746252 432.69563374 246.55921546 431.71261089 246.4167791 430.69979948 C246.01762205 428.11415157 245.53453524 425.56075152 245 423 C243.35 423 241.7 423 240 423 Z " fill="#FCFCFC" transform="translate(930,447)" style="stroke-linejoin: round; stroke: rgb(0, 0, 0); stroke-width: 22px;"/>
  <path d="M 0 0 C 259.324 0 259.324 0 307 45 C 308.013 45.934 308.013 45.934 309.047 46.887 C 341.856 78.187 352.696 126.24 357.688 169.625 C 357.867 171.178 357.867 171.178 358.05 172.761 C 360.206 192.935 360.152 213.168 360.145 233.428 C 360.145 237.496 360.151 241.565 360.155 245.633 C 360.164 253.579 360.166 261.526 360.167 269.472 C 360.168 275.944 360.17 282.417 360.173 288.889 C 360.182 307.313 360.186 325.737 360.185 344.16 C 360.185 345.645 360.185 345.645 360.185 347.16 C 360.185 348.151 360.185 349.142 360.185 350.164 C 360.185 366.197 360.194 382.231 360.208 398.264 C 360.223 414.799 360.23 431.334 360.229 447.869 C 360.229 457.124 360.231 466.378 360.242 475.632 C 360.251 483.516 360.253 491.4 360.247 499.284 C 360.243 503.29 360.243 507.296 360.252 511.302 C 360.284 527.045 360.067 542.723 359.094 558.439 C 359.015 559.739 358.935 561.038 358.853 562.377 C 358.167 572.481 356.762 582.293 354.609 592.183 C 353.938 595.284 353.313 598.393 352.688 601.504 C 345.883 634.526 334.892 664.051 313 690 C 312.146 691.083 311.292 692.167 310.438 693.25 C 279.107 728.597 230.499 737.292 186 741 C 124.62 741 63.24 741 0 741 C 0 496.47 0 251.94 0 0 Z M 44 57 C 44 263.25 44 469.5 44 682 C 153.66 691.595 177.101 675.968 255 649 C 285.185 617.783 292.168 570.161 292.14 528.496 C 292.143 527.079 292.146 525.661 292.149 524.243 C 292.157 520.384 292.159 516.524 292.16 512.664 C 292.162 508.487 292.169 504.309 292.176 500.132 C 292.19 491.011 292.196 481.89 292.2 472.769 C 292.203 467.06 292.207 461.35 292.212 455.641 C 292.224 439.793 292.234 423.945 292.238 408.096 C 292.238 407.084 292.238 406.071 292.238 405.028 C 292.238 404.013 292.239 402.999 292.239 401.953 C 292.239 399.897 292.24 397.841 292.24 395.785 C 292.24 394.765 292.241 393.746 292.241 392.695 C 292.245 376.206 292.262 359.718 292.286 343.229 C 292.309 326.248 292.322 309.267 292.323 292.285 C 292.324 282.772 292.329 273.26 292.348 263.747 C 292.363 255.639 292.368 247.531 292.36 239.423 C 292.356 235.3 292.357 231.177 292.371 227.054 C 292.525 179.673 289.183 125.835 254 90 C 201.228 39.187 104.993 57 44 57 Z" fill="#000000" transform="translate(1986,793)"/>
  <path d="M0 0 C0.94223971 0.00205532 1.88447942 0.00411064 2.85527185 0.00622824 C3.85082175 0.0044752 4.84637166 0.00272216 5.87208974 0.000916 C9.25301538 -0.00378559 12.63389879 -0.00126784 16.01482633 0.00114992 C18.44571441 -0.00071603 20.87660219 -0.00301586 23.30748948 -0.0057154 C28.61661552 -0.010579 33.92572897 -0.01228389 39.23485616 -0.01125929 C47.13123598 -0.0097391 55.02760566 -0.01388597 62.92398351 -0.01913391 C77.85495834 -0.02882885 92.78592974 -0.0316191 107.71690734 -0.03219097 C119.26264638 -0.03265027 130.80838407 -0.03470737 142.35412267 -0.0378916 C145.67633729 -0.03878918 148.99855191 -0.03967899 152.32076654 -0.04056647 C153.14672404 -0.04078752 153.97268155 -0.04100857 154.82366807 -0.04123632 C178.0792714 -0.04739638 201.33487427 -0.05133637 224.59047845 -0.05089304 C225.46825686 -0.05087746 226.34603527 -0.05086188 227.25041302 -0.05084583 C231.6993383 -0.05076272 236.14826358 -0.05066368 240.59718885 -0.05056112 C241.48074491 -0.05054118 242.36430096 -0.05052123 243.27463144 -0.05050068 C245.06141025 -0.05046025 246.84818906 -0.05041845 248.63496787 -0.05037529 C276.3611257 -0.04976414 304.08727125 -0.05723694 331.81342557 -0.07094786 C362.97625649 -0.08635193 394.13907934 -0.09491122 425.3019143 -0.09398463 C428.63450264 -0.09391001 431.96709097 -0.0938613 435.29967931 -0.09383032 C436.12021496 -0.09381866 436.94075062 -0.09380701 437.78615099 -0.093795 C450.92815619 -0.09376437 464.07015065 -0.10012107 477.21215267 -0.10876258 C490.46355761 -0.11729459 503.71494707 -0.11818631 516.96635326 -0.11165326 C524.12990292 -0.10831092 531.29341731 -0.10803745 538.45696309 -0.11700651 C566.54109516 -0.15059334 594.52751814 -0.16027643 622.53486112 2.13486269 C622.53486112 2.46486269 622.53486112 2.79486269 622.53486112 3.13486269 C415.29486112 2.80486269 208.05486112 2.47486269 -5.46513888 2.13486269 C-5.45353732 55.33189394 -5.44193576 108.52892519 -5.42998263 163.33798769 C-5.424423 197.77903102 -5.41888218 232.22007399 -5.41510817 266.66111751 C-5.41459576 271.32673789 -5.41408012 275.99235826 -5.41356131 280.65797864 C-5.40957778 316.62190109 -5.40622173 352.58582358 -5.40328214 388.54974613 C-5.40285626 393.75841972 -5.40242224 398.96709332 -5.40198037 404.17576692 C-5.39501847 486.33186395 -5.39253888 568.48796028 -5.39873263 659.49033144 C-5.39881071 660.58797694 -5.39881071 660.58797694 -5.39889037 661.7077971 C-5.40451403 740.18238694 -5.41657179 818.65697623 -5.68779513 1356.99814394 C-5.68847205 1358.02601149 -5.68914896 1359.05387904 -5.68984639 1360.1128941 C-5.75728085 1462.4699512 -5.82839817 1564.82700572 -5.95837097 1744.40257008 C-5.96364656 1751.6464102 -5.96891651 1758.89025033 -5.97418323 1766.13409045 C-6.04634361 1865.38102319 -6.11929864 1964.62795533 -6.46513888 2415.13486269 C-16.69513888 2415.13486269 -26.92513888 2415.13486269 -37.46513888 2415.13486269 C-37.46513888 2414.80486269 -37.46513888 2414.47486269 -37.46513888 2414.13486269 C-27.56513888 2414.13486269 -17.66513888 2414.13486269 -7.46513888 2414.13486269 C-7.49024821 2369.92693614 -7.51556837 2325.71900972 -7.54106662 2281.51108339 C-7.54156555 2280.6460156 -7.54206449 2279.78094781 -7.54257854 2278.88966584 C-7.59604273 2186.2023692 -7.65095711 2093.51507357 -7.70880648 2000.82777956 C-7.71009101 1998.76909726 -7.71137554 1996.71041495 -7.71266006 1994.65173265 C-7.73962661 1951.4400669 -7.76679723 1908.22840128 -7.79420362 1865.0167358 C-7.8079704 1843.3102948 -7.82169797 1821.60385376 -7.83538845 1799.89741271 C-7.83745385 1796.62306472 -7.83952036 1793.34871674 -7.84158692 1790.07436876 C-7.87340162 1739.65015755 -7.9043749 1689.22594599 -7.93291232 1638.80173281 C-7.93352598 1637.71745214 -7.93413964 1636.63317148 -7.9347719 1635.51603382 C-7.94466091 1618.03406396 -7.95447935 1600.55209405 -7.96428843 1583.07012414 C-7.99254044 1532.72062261 -8.02131375 1482.37112162 -8.05354163 1432.02162245 C-8.05420403 1430.98636241 -8.05486643 1429.95110237 -8.0555489 1428.88447082 C-8.07009906 1406.15874005 -8.08491764 1383.43300946 -8.09999042 1360.70727903 C-8.10605035 1351.56339629 -8.11207163 1342.41951352 -8.11807963 1333.27563074 C-8.11873812 1332.27486874 -8.1193966 1331.27410673 -8.12007504 1330.2430186 C-8.141277 1297.99116209 -8.15933232 1265.73930476 -8.17573925 1233.48744548 C-8.19227919 1201.00240629 -8.21190094 1168.51737056 -8.23581319 1136.03233592 C-8.23911608 1131.54427439 -8.24238359 1127.05621284 -8.24562976 1122.56815127 C-8.24626738 1121.68835547 -8.24690501 1120.80855968 -8.24756196 1119.90210341 C-8.25757086 1105.96529372 -8.26424324 1092.0284845 -8.26952661 1078.09167229 C-8.27478904 1064.39070689 -8.28357734 1050.68974753 -8.29612662 1036.98878682 C-8.30337913 1028.95430518 -8.30791527 1020.91983308 -8.30843835 1012.88534811 C-8.30912903 1006.92235608 -8.31498487 1000.95938094 -8.32285951 994.99639358 C-8.32522597 992.59758971 -8.32592532 990.19878347 -8.32476538 987.79997871 C-8.29114212 970.94225342 -8.29114212 970.94225342 -9.46513888 954.13486269 C-9.13513888 954.13486269 -8.80513888 954.13486269 -8.46513888 954.13486269 C-8.46442674 953.30769587 -8.46371459 952.48052904 -8.46298087 951.62829656 C-8.38545505 861.6218512 -8.30670098 771.61540695 -8.22147128 681.60896853 C-8.22018675 680.2520576 -8.21890223 678.89514667 -8.2176177 677.53823574 C-8.19065271 649.05839652 -8.16348219 620.57855749 -8.13607415 592.0987187 C-8.12230708 577.79305832 -8.10857952 563.48739791 -8.09488931 549.18173746 C-8.09282392 547.02373788 -8.09075741 544.8657383 -8.08869084 542.70773872 C-8.05686612 509.46453513 -8.02589039 476.22133101 -7.99736544 442.97812441 C-7.99644495 441.90540421 -7.99644495 441.90540421 -7.99550587 440.81101289 C-7.98561652 429.28020491 -7.97579822 417.74939686 -7.96598934 406.21858881 C-7.93774705 373.0197112 -7.90898237 339.82083442 -7.87673613 306.62196043 C-7.87607374 305.9397292 -7.87541134 305.25749796 -7.87472887 304.55459305 C-7.86018066 289.58053247 -7.84536212 274.60647217 -7.83028735 259.63241212 C-7.82422719 253.60800559 -7.81820597 247.58359903 -7.81219813 241.55919245 C-7.8108824 240.24111746 -7.80956668 238.92304248 -7.80821108 237.56502583 C-7.78708214 216.30180093 -7.76941006 195.03857514 -7.75301357 173.77534618 C-7.73647784 152.42641088 -7.71634112 131.07748142 -7.69247047 109.72855303 C-7.67837944 97.02681903 -7.66710745 84.3250896 -7.6597745 71.62334985 C-7.65461469 63.15544913 -7.64587993 54.68755713 -7.63415115 46.21966296 C-7.62755826 41.38400404 -7.62260212 36.54835772 -7.62197689 31.71269403 C-7.62137906 27.32373301 -7.61628332 22.93480237 -7.60741826 18.54585047 C-7.60503195 16.95818759 -7.60436237 15.37052109 -7.60551238 13.78285683 C-7.60682391 11.64510917 -7.60210881 9.50746153 -7.59574941 7.36972508 C-7.59465754 6.18068478 -7.59356568 4.99164448 -7.59244073 3.76657266 C-7.34668919 -1.31384689 -4.39184341 0.01431958 0 0 Z " fill="#B01D26" transform="translate(1608.4651388823986,446.865137308836)"/>
  <path d="M0 0 C61.71 0 123.42 0 187 0 C187 0.33 187 0.66 187 1 C127.27 1 67.54 1 6 1 C6 245.53 6 490.06 6 742 C4.02 742 2.04 742 0 742 C0 497.14 0 252.28 0 0 Z " fill="#C1020D" transform="translate(1980,792)"/>
  <path d="M0 0 C2.81418823 0.25804315 5.62562838 0.53109126 8.4375 0.8125 C9.22060547 0.88275391 10.00371094 0.95300781 10.81054688 1.02539062 C15.74066584 1.53260451 20.07557987 2.56467214 24.73754883 4.23071289 C28.62695619 5.55320373 32.62306254 6.40195545 36.625 7.3125 C38.50813259 7.75645695 40.39093525 8.20181528 42.2734375 8.6484375 C45.03147036 9.30104507 47.78968186 9.95162602 50.55175781 10.58691406 C64.85683262 13.9062306 78.67671373 18.44766641 92.5625 23.1875 C93.47866089 23.49936249 94.39482178 23.81122498 95.33874512 24.13253784 C97.97925039 25.03416296 100.6170976 25.94309529 103.25390625 26.85546875 C104.04678543 27.1271991 104.83966461 27.39892944 105.65657043 27.67889404 C109.95075258 29.17868956 113.95712729 30.89214223 118 33 C119.9497748 33.75175241 121.90868571 34.48013759 123.875 35.1875 C129.54110556 37.33781258 134.92925087 39.86402215 140.31787109 42.61791992 C146.65998022 45.85546312 153.07211762 48.93670458 159.5 52 C160.53431152 52.49322754 161.56862305 52.98645508 162.63427734 53.49462891 C165.08896402 54.66425628 167.54417193 55.83277152 170 57 C170 57.66 170 58.32 170 59 C170.64195312 59.22429688 171.28390625 59.44859375 171.9453125 59.6796875 C193.82609517 69.13711019 214.23319494 85.35645554 232.34960938 100.62158203 C234.69823912 102.58317427 237.10403656 104.47169768 239.5 106.375 C253.89686821 118.18172701 268.10327936 131.54332354 280.125 145.7890625 C281.66258869 147.60213584 283.22621718 149.37840334 284.8125 151.1484375 C340.0620906 213.1703941 372.95431091 292.88194469 392.43890381 372.72644043 C392.97783632 374.91019286 393.53381293 377.0887838 394.09619141 379.26660156 C400.46576671 404.0852615 401.13719513 428.45392016 401 454 C398.93687297 450.90530946 398.64458881 449.6379638 398.25390625 446.0546875 C398.0839917 444.57645508 398.0839917 444.57645508 397.91064453 443.06835938 C397.79575684 442.01455078 397.68086914 440.96074219 397.5625 439.875 C394.87462131 417.00260982 390.16695724 394.52746623 384.66235352 372.17211914 C383.53410433 367.51725212 382.6473907 362.94851032 382.0625 358.1875 C381.28357889 352.43832038 379.44532775 347.44796448 377.31713867 342.09179688 C375.03448322 336.30137512 373.46052378 330.50286999 371.93359375 324.46484375 C370.84048696 320.40799971 369.43106854 316.54249661 367.93359375 312.62109375 C366.9564972 309.87786453 366.21610456 307.13433905 365.5 304.3125 C364.41980089 300.17956428 362.9833795 296.6451618 360.96875 292.890625 C359.98978537 290.980065 359.23072309 289.07993114 358.5 287.0625 C355.69241429 279.32670534 352.05606212 271.92972213 348.54980469 264.49194336 C347.16604178 261.54696204 345.82773242 258.59757923 344.546875 255.60546875 C339.13411221 242.9893575 333.10639813 230.74908996 326 219 C325.54141602 218.23494141 325.08283203 217.46988281 324.61035156 216.68164062 C313.66589289 198.47629512 301.85452233 181.01114476 288.33007812 164.61816406 C287.08797031 163.10702409 285.86358619 161.58136421 284.640625 160.0546875 C279.83335614 154.07117201 274.77001523 148.39059682 269.55078125 142.76953125 C267.5044649 140.54772682 265.51935577 138.29966262 263.5625 136 C256.36346801 127.71072999 248.37301799 120.08710947 240 113 C238.95087466 112.08832967 237.90279159 111.17545922 236.85546875 110.26171875 C229.12195968 103.5353694 221.2224105 97.12045769 213 91 C212.36175293 90.51982422 211.72350586 90.03964844 211.06591797 89.54492188 C180.62508286 66.70882713 147.07727658 48.61553191 112 34 C111.195625 33.66355469 110.39125 33.32710938 109.5625 32.98046875 C104.42168668 30.85354775 99.22905078 28.89820338 94 27 C92.99936523 26.63197266 91.99873047 26.26394531 90.96777344 25.88476562 C64.56840979 16.23839621 37.6797665 8.8833169 10.02563477 3.85058594 C8.85057373 3.63305664 7.6755127 3.41552734 6.46484375 3.19140625 C4.91204712 2.91598999 4.91204712 2.91598999 3.32788086 2.63500977 C2.55968018 2.42545654 1.79147949 2.21590332 1 2 C0.67 1.34 0.34 0.68 0 0 Z " fill="#BC010C" transform="translate(2317,461)"/>
  <path d="M0 0 C0.99 0.495 0.99 0.495 2 1 C-0.15127942 5.21127336 -2.21628898 7.10207137 -6.3125 9.41796875 C-7.37758789 10.02721191 -8.44267578 10.63645508 -9.54003906 11.26416016 C-10.68182617 11.8988623 -11.82361328 12.53356445 -13 13.1875 C-14.19271832 13.85926794 -15.38509809 14.5316373 -16.57714844 15.20458984 C-18.95587275 16.54300064 -21.33956997 17.87181649 -23.72851562 19.19189453 C-25.68889796 20.27537152 -27.6468053 21.3633724 -29.59960938 22.46044922 C-73.09591488 46.86918162 -122.59168533 62.31952599 -171.0625 73 C-172.00174316 73.20778076 -172.94098633 73.41556152 -173.90869141 73.62963867 C-175.2087915 73.90578003 -175.2087915 73.90578003 -176.53515625 74.1875 C-177.281604 74.34605469 -178.02805176 74.50460937 -178.79711914 74.66796875 C-181.2258 75.03403391 -183.54748091 75.05607607 -186 75 C-183.66007499 72.66007499 -182.62850955 72.54735931 -179.43359375 71.95703125 C-178.48524658 71.77390381 -177.53689941 71.59077637 -176.55981445 71.40209961 C-175.0142688 71.1102478 -175.0142688 71.1102478 -173.4375 70.8125 C-156.91168434 67.53789153 -140.77346563 62.89750258 -124.71484375 57.83203125 C-121.08041617 56.71817071 -117.41266716 55.75109604 -113.73046875 54.80859375 C-110.0789446 53.72724111 -106.54890884 52.37357807 -103 51 C-101.98107666 50.60643311 -100.96215332 50.21286621 -99.91235352 49.80737305 C-96.33471806 48.42004354 -92.76084269 47.02334669 -89.1875 45.625 C-87.98029297 45.15578125 -86.77308594 44.6865625 -85.52929688 44.203125 C-79.05737237 41.66895878 -72.67902773 39.01822375 -66.37329102 36.09448242 C-64.42683603 35.1968425 -62.45825488 34.3473279 -60.484375 33.51171875 C-45.9269256 27.19587467 -31.99280998 19.61820214 -18.375 11.5 C-17.79673462 11.15538727 -17.21846924 10.81077454 -16.62268066 10.45571899 C-10.99326034 7.0914568 -5.43845214 3.66375709 0 0 Z " fill="#AD010B" transform="translate(2509,1790)"/>
  <path d="M0 0 C2.81418823 0.25804315 5.62562838 0.53109126 8.4375 0.8125 C9.22060547 0.88275391 10.00371094 0.95300781 10.81054688 1.02539062 C15.74066584 1.53260451 20.07557987 2.56467214 24.73754883 4.23071289 C28.62695619 5.55320373 32.62306254 6.40195545 36.625 7.3125 C38.50813259 7.75645695 40.39093525 8.20181528 42.2734375 8.6484375 C45.03147036 9.30104507 47.78968186 9.95162602 50.55175781 10.58691406 C64.85683262 13.9062306 78.67671373 18.44766641 92.5625 23.1875 C93.47866089 23.49936249 94.39482178 23.81122498 95.33874512 24.13253784 C97.97925039 25.03416296 100.6170976 25.94309529 103.25390625 26.85546875 C104.04678543 27.1271991 104.83966461 27.39892944 105.65657043 27.67889404 C109.95075258 29.17868956 113.95712729 30.89214223 118 33 C119.9497748 33.75175241 121.90868571 34.48013759 123.875 35.1875 C129.54110556 37.33781258 134.92925087 39.86402215 140.31787109 42.61791992 C146.65998022 45.85546312 153.07211762 48.93670458 159.5 52 C160.53431152 52.49322754 161.56862305 52.98645508 162.63427734 53.49462891 C165.08896402 54.66425628 167.54417193 55.83277152 170 57 C169.01 57.99 169.01 57.99 168 59 C163.73092891 58.67186748 160.55153013 57.4871852 156.82421875 55.4453125 C155.84396729 54.91824707 154.86371582 54.39118164 153.85375977 53.84814453 C152.80889404 53.27950684 151.76402832 52.71086914 150.6875 52.125 C132.40480223 42.40093297 113.45346694 34.09500974 94 27 C92.99646484 26.63052246 91.99292969 26.26104492 90.95898438 25.88037109 C64.56263158 16.23614743 37.6762062 8.88266896 10.02563477 3.85058594 C8.85057373 3.63305664 7.6755127 3.41552734 6.46484375 3.19140625 C4.91204712 2.91598999 4.91204712 2.91598999 3.32788086 2.63500977 C2.55968018 2.42545654 1.79147949 2.21590332 1 2 C0.67 1.34 0.34 0.68 0 0 Z " fill="#AF010B" transform="translate(2317,461)"/>
  <path d="M0 0 C9.59453303 2.89066059 9.59453303 2.89066059 13 6 C9.27811664 6.97477898 7.35751532 7.12816587 3.6875 5.8125 C1 4 1 4 0.33203125 1.88671875 C0.22246094 1.26410156 0.11289063 0.64148438 0 0 Z " fill="#A1010A" transform="translate(2474,513)"/>
  <path d="M0 0 C0.70125 0.28875 1.4025 0.5775 2.125 0.875 C5.05452503 2.02133588 8.00921653 3.02625654 11 4 C11 4.33 11 4.66 11 5 C5.60550707 5.27429625 2.48074195 5.36055646 -2 2 C-1.34 1.34 -0.68 0.68 0 0 Z " fill="#9E010A" transform="translate(2444,498)"/>
</svg>